<svg xmlns="http://www.w3.org/2000/svg" xmlns:xlink="http://www.w3.org/1999/xlink" fill="none" version="1.1" width="24" height="24" viewBox="0 0 24 24"><defs><clipPath id="master_svg0_1_526"><rect x="0" y="0" width="24" height="24" rx="0"/></clipPath></defs><g clip-path="url(#master_svg0_1_526)"><g><path d="M3,4.995C3,3.893,3.893,3,4.995,3L19.005,3C20.107,3,21,3.893,21,4.995L21,19.005C21,20.1068,20.1068,21,19.005,21L4.995,21C3.893192,21,3,20.1068,3,19.005L3,4.995ZM6.357,18L17.847,18C16.539099999999998,16.119300000000003,14.3928,14.9985,12.102,15C9.81118,14.9985,7.66492,16.119300000000003,6.357,18ZM12,13C13.933,13,15.5,11.433,15.5,9.5C15.5,7.567,13.933,6,12,6C10.067,6,8.5,7.567,8.5,9.5C8.5,11.433,10.067,13,12,13Z" fill="#CBD5E0" fill-opacity="1" style="mix-blend-mode:passthrough"/></g></g></svg>